<svg id="Layer_2" height="512" viewBox="0 0 128 128" width="512" xmlns="http://www.w3.org/2000/svg" data-name="Layer 2"><path d="m127.92 83.479c-.009-.032-.018-.062-.029-.094a1.735 1.735 0 0 0 -.223-.43c-.005-.008-.007-.017-.013-.025l-20.016-26.961a1.75 1.75 0 0 0 -1.405-.707h-84.468a1.75 1.75 0 0 0 -1.405.707l-20.016 26.962c-.006.008-.007.017-.013.025a1.735 1.735 0 0 0 -.223.43c-.011.031-.02.062-.029.094a1.73 1.73 0 0 0 -.08.495v6.949a5.757 5.757 0 0 0 5.75 5.75h48v10.82h-6.311a1.75 1.75 0 0 0 -1.133.417l-10.008 8.5a1.75 1.75 0 0 0 -.617 1.333v8.5a1.75 1.75 0 0 0 1.75 1.75h53.137a1.75 1.75 0 0 0 1.75-1.75v-8.5a1.75 1.75 0 0 0 -.617-1.333l-10.008-8.5a1.75 1.75 0 0 0 -1.133-.417h-6.31v-10.822h48a5.757 5.757 0 0 0 5.75-5.75v-6.948a1.73 1.73 0 0 0 -.08-.495zm-92.337-1.255 4.777-11.452h21.664v11.452zm-30.354 0 8.5-11.451h22.838l-4.777 11.451zm56.8-23.461v8.51h-20.209l3.55-8.51zm20.154 0 3.55 8.51h-20.2v-8.51zm-16.659 12.009h21.665l4.777 11.451h-26.442zm30.234 11.452-4.777-11.452h23.289l8.5 11.451zm15.913-14.951h-22.15l-3.55-8.51h19.382zm-89.025-8.51h18.931l-3.55 8.51h-21.7zm66.172 59.793v5.944h-49.636v-5.944l8.9-7.563h31.835zm-18.068-11.064h-13.5v-10.82h13.5zm51.5-14.32h-116.5a2.252 2.252 0 0 1 -2.25-2.25v-5.2h121v5.2a2.252 2.252 0 0 1 -2.25 2.25z"/><path d="m64 36.54a11.447 11.447 0 1 0 -11.447-11.447 11.459 11.459 0 0 0 11.447 11.447zm0-19.394a7.947 7.947 0 1 1 -7.947 7.947 7.956 7.956 0 0 1 7.947-7.947z"/><path d="m63.774 9.625a1.75 1.75 0 0 0 1.75-1.75v-6.125a1.75 1.75 0 0 0 -3.5 0v6.125a1.75 1.75 0 0 0 1.75 1.75z"/><path d="m62.024 42.312v6.125a1.75 1.75 0 0 0 3.5 0v-6.125a1.75 1.75 0 0 0 -3.5 0z"/><path d="m75.949 14.668a1.744 1.744 0 0 0 1.237-.513l4.331-4.331a1.75 1.75 0 0 0 -2.474-2.474l-4.331 4.331a1.75 1.75 0 0 0 1.237 2.987z"/><path d="m50.362 36.031-4.331 4.331a1.75 1.75 0 1 0 2.475 2.475l4.331-4.331a1.75 1.75 0 0 0 -2.475-2.475z"/><path d="m79.243 25.093a1.75 1.75 0 0 0 1.75 1.75h6.125a1.75 1.75 0 0 0 0-3.5h-6.125a1.75 1.75 0 0 0 -1.75 1.75z"/><path d="m40.431 26.843h6.125a1.75 1.75 0 0 0 0-3.5h-6.125a1.75 1.75 0 0 0 0 3.5z"/><path d="m74.712 36.031a1.749 1.749 0 0 0 0 2.475l4.331 4.331a1.75 1.75 0 0 0 2.475-2.475l-4.331-4.331a1.749 1.749 0 0 0 -2.475 0z"/><path d="m50.362 14.155a1.75 1.75 0 0 0 2.475-2.475l-4.332-4.33a1.75 1.75 0 0 0 -2.475 2.475z"/></svg>