<svg id="Capa_1" enable-background="new 0 0 512.004 512.004" height="512" viewBox="0 0 512.004 512.004" width="512" xmlns="http://www.w3.org/2000/svg"><g><path d="m303.713 134.249h-10.193c-4.143 0-7.5 3.358-7.5 7.5s3.357 7.5 7.5 7.5h10.193c4.143 0 7.5-3.358 7.5-7.5s-3.358-7.5-7.5-7.5z"/><path d="m303.713 165.471h-10.193c-4.143 0-7.5 3.358-7.5 7.5s3.357 7.5 7.5 7.5h10.193c4.143 0 7.5-3.358 7.5-7.5s-3.358-7.5-7.5-7.5z"/><path d="m303.713 196.693h-10.193c-4.143 0-7.5 3.357-7.5 7.5s3.357 7.5 7.5 7.5h10.193c4.143 0 7.5-3.357 7.5-7.5s-3.358-7.5-7.5-7.5z"/><path d="m303.713 227.916h-10.193c-4.143 0-7.5 3.357-7.5 7.5s3.357 7.5 7.5 7.5h10.193c4.143 0 7.5-3.357 7.5-7.5s-3.358-7.5-7.5-7.5z"/><path d="m303.713 258.753h-10.193c-4.143 0-7.5 3.357-7.5 7.5s3.357 7.5 7.5 7.5h10.193c4.143 0 7.5-3.357 7.5-7.5s-3.358-7.5-7.5-7.5z"/><path d="m303.713 289.975h-10.193c-4.143 0-7.5 3.357-7.5 7.5s3.357 7.5 7.5 7.5h10.193c4.143 0 7.5-3.357 7.5-7.5s-3.358-7.5-7.5-7.5z"/><path d="m426.38 134.249h-94.194c-4.143 0-7.5 3.358-7.5 7.5s3.357 7.5 7.5 7.5h94.194c4.143 0 7.5-3.358 7.5-7.5s-3.358-7.5-7.5-7.5z"/><path d="m426.38 165.471h-94.194c-4.143 0-7.5 3.358-7.5 7.5s3.357 7.5 7.5 7.5h94.194c4.143 0 7.5-3.358 7.5-7.5s-3.358-7.5-7.5-7.5z"/><path d="m426.38 196.693h-94.194c-4.143 0-7.5 3.357-7.5 7.5s3.357 7.5 7.5 7.5h94.194c4.143 0 7.5-3.357 7.5-7.5s-3.358-7.5-7.5-7.5z"/><path d="m426.38 227.916h-94.194c-4.143 0-7.5 3.357-7.5 7.5s3.357 7.5 7.5 7.5h94.194c4.143 0 7.5-3.357 7.5-7.5s-3.358-7.5-7.5-7.5z"/><path d="m426.38 258.753h-94.194c-4.143 0-7.5 3.357-7.5 7.5s3.357 7.5 7.5 7.5h94.194c4.143 0 7.5-3.357 7.5-7.5s-3.358-7.5-7.5-7.5z"/><path d="m426.38 289.975h-94.194c-4.143 0-7.5 3.357-7.5 7.5s3.357 7.5 7.5 7.5h94.194c4.143 0 7.5-3.357 7.5-7.5s-3.358-7.5-7.5-7.5z"/><path d="m473.308 207.762c4.143 0 7.5-3.357 7.5-7.5 0-1.591 0-134.892 0-138.208 0-6.422-5.225-11.646-11.646-11.646-24.192 0-402.079 0-426.318 0-6.422 0-11.646 5.225-11.646 11.646v284.949c0 6.422 5.225 11.646 11.646 11.646h426.318c6.422 0 11.646-5.225 11.646-11.646v-111.741c0-4.143-3.357-7.5-7.5-7.5s-7.5 3.357-7.5 7.5v108.388h-195.776v-26.591c0-16.416-10.159-32.063-24.705-38.051-.048-.02-.097-.039-.146-.059l-49.411-19.136-.001-5.152c11.47-8.451 18.929-22.044 18.929-37.351v-18.293c4.422-2.484 7.421-7.215 7.421-12.638v-29.587c0-11.285-9.624-19.614-19.783-19.077-3.056-13.952-13.84-16.908-22.424-16.908h-38.876c-18.381 0-33.334 14.954-33.334 33.334v28.353c0 8.307 5.543 15.335 13.121 17.603v17.214c0 15.44 7.355 28.893 18.905 37.276v5.075c-1.034.404-48.373 18.892-49.407 19.296-.042.017-.084.033-.125.051-11.899 4.896-24.707 18.892-24.707 38.051v26.591h-19.293v-241.155h419.611v97.766c.001 4.143 3.358 7.5 7.501 7.5zm-347.229-21.889c-1.862 0-3.377-1.515-3.377-3.378v-28.353c0-10.11 8.225-18.334 18.334-18.334h38.876c6.774 0 7.224 2.3 7.847 5.484 1.383 7.068 7.993 11.967 15.31 11.407h.001c1.668-.137 4.05 1.482 4.05 4.094v29.036c-2.994-.264-5.333-2.812-5.333-5.797 0-8.451-11.393-11.376-15.408-3.867-3.201 5.988-9.399 9.708-16.176 9.708-7.615 0-39.377 0-44.124 0zm9.744 31.438v-16.438h34.379c7.758 0 15.311-2.717 21.282-7.673 2.174 2.66 4.993 4.773 8.214 6.103v18.008c0 17.418-14.206 31.375-31.375 31.375-19.225 0-32.5-14.327-32.5-31.375zm50.967 55.038c-11.581 9.604-28.114 8.17-38.133-.078 3.33-1.46 6.071-5.126 6.071-10.417 8.633 2.402 17.838 2.423 26.042.128.001 4.882 2.386 8.481 6.02 10.367zm-106.301 44.71c0-13.047 9.163-21.578 15.358-24.156l37.624-14.694c16.965 20.143 50.172 21.933 68.506.094l37.707 14.604c7.639 3.179 15.349 12.478 15.349 24.152v26.591h-19.43v-26.805c0-4.143-3.357-7.5-7.5-7.5s-7.5 3.357-7.5 7.5v26.805h-105.685v-26.805c0-4.143-3.357-7.5-7.5-7.5s-7.5 3.357-7.5 7.5v26.805h-19.429zm-4.259-229.563h-30.034v-22.088h30.034zm15.001 0v-22.088h374.576v22.088z"/><path d="m475.684 19.211h-202.182c-4.143 0-7.5 3.358-7.5 7.5s3.357 7.5 7.5 7.5h202.182c11.756 0 21.32 9.564 21.32 21.32v297.995c0 11.756-9.564 21.32-21.32 21.32-11.864 0-427.639 0-439.364 0-11.756 0-21.319-9.564-21.319-21.32v-297.995c0-11.756 9.563-21.32 21.319-21.32h202.183c4.143 0 7.5-3.358 7.5-7.5s-3.357-7.5-7.5-7.5h-202.184c-20.026 0-36.319 16.293-36.319 36.32v297.995c0 20.027 16.293 36.32 36.319 36.32h165.64v21.776c0 9.138-4.397 17.747-11.478 22.47l-18.745 12.504h-14.903c-9.649 0-17.499 7.851-17.499 17.5v11.196c0 9.649 7.85 17.5 17.499 17.5h198.335c9.649 0 17.5-7.851 17.5-17.5v-11.196c0-9.649-7.851-17.5-17.5-17.5h-14.902l-18.745-12.504c-7.08-4.723-11.479-13.332-11.479-22.47v-21.776h165.64c20.027 0 36.32-16.293 36.32-36.32v-297.995c.002-20.027-16.291-36.32-36.318-36.32zm-120.515 442.385c1.379 0 2.5 1.121 2.5 2.5v11.196c0 1.379-1.121 2.5-2.5 2.5h-198.335c-1.378 0-2.499-1.121-2.499-2.5v-11.196c0-1.379 1.121-2.5 2.499-2.5zm-41.971-15.025.038.025h-114.468l.038-.025c11.367-7.582 18.153-20.646 18.153-34.948v-21.776h78.085v21.776c0 14.3 6.787 27.366 18.154 34.948z"/></g></svg>